<mxfile host="app.diagrams.net" modified="2023-08-28T02:45:24.665Z" agent="Mozilla/5.0 (Windows NT 10.0; Win64; x64) AppleWebKit/537.36 (KHTML, like Gecko) Chrome/116.0.0.0 Safari/537.36 Edg/116.0.1938.62" etag="wh_v7tEy328kcMwhjwgo" version="21.6.9" type="device" pages="4">
  <diagram name="Contexto" id="ztoPSp27SqKK37VIA588">
    <mxGraphModel dx="825" dy="522" grid="1" gridSize="10" guides="1" tooltips="1" connect="1" arrows="1" fold="1" page="1" pageScale="1" pageWidth="850" pageHeight="1100" math="0" shadow="0">
      <root>
        <mxCell id="0" />
        <mxCell id="1" parent="0" />
        <mxCell id="JApBpG1Is4ODQqd0xIDY-1" value="Sistema&lt;br&gt;ABC Jobs" style="rounded=0;whiteSpace=wrap;html=1;" parent="1" vertex="1">
          <mxGeometry x="365" y="200" width="120" height="60" as="geometry" />
        </mxCell>
        <mxCell id="JApBpG1Is4ODQqd0xIDY-3" style="edgeStyle=orthogonalEdgeStyle;rounded=0;orthogonalLoop=1;jettySize=auto;html=1;" parent="1" source="JApBpG1Is4ODQqd0xIDY-2" target="JApBpG1Is4ODQqd0xIDY-1" edge="1">
          <mxGeometry relative="1" as="geometry" />
        </mxCell>
        <mxCell id="JApBpG1Is4ODQqd0xIDY-2" value="Recurso TI" style="shape=umlActor;verticalLabelPosition=bottom;verticalAlign=top;html=1;outlineConnect=0;" parent="1" vertex="1">
          <mxGeometry x="270" y="240" width="30" height="60" as="geometry" />
        </mxCell>
        <mxCell id="JApBpG1Is4ODQqd0xIDY-5" style="edgeStyle=orthogonalEdgeStyle;rounded=0;orthogonalLoop=1;jettySize=auto;html=1;" parent="1" source="JApBpG1Is4ODQqd0xIDY-4" target="JApBpG1Is4ODQqd0xIDY-1" edge="1">
          <mxGeometry relative="1" as="geometry" />
        </mxCell>
        <mxCell id="JApBpG1Is4ODQqd0xIDY-4" value="Empresa con Interés de grupo TI" style="shape=umlActor;verticalLabelPosition=bottom;verticalAlign=top;html=1;outlineConnect=0;" parent="1" vertex="1">
          <mxGeometry x="390" y="300" width="30" height="60" as="geometry" />
        </mxCell>
        <mxCell id="JApBpG1Is4ODQqd0xIDY-10" style="edgeStyle=orthogonalEdgeStyle;rounded=0;orthogonalLoop=1;jettySize=auto;html=1;" parent="1" source="JApBpG1Is4ODQqd0xIDY-8" target="JApBpG1Is4ODQqd0xIDY-1" edge="1">
          <mxGeometry relative="1" as="geometry" />
        </mxCell>
        <mxCell id="JApBpG1Is4ODQqd0xIDY-8" value="Sistema de Recursos Humanos" style="rounded=0;whiteSpace=wrap;html=1;fillColor=#60a917;fontColor=#ffffff;strokeColor=#2D7600;" parent="1" vertex="1">
          <mxGeometry x="580" y="200" width="120" height="60" as="geometry" />
        </mxCell>
      </root>
    </mxGraphModel>
  </diagram>
  <diagram id="3wVw7ky7Zgbt8xOjRbGX" name="Componentes">
    <mxGraphModel dx="2225" dy="927" grid="1" gridSize="10" guides="1" tooltips="1" connect="1" arrows="1" fold="1" page="1" pageScale="1" pageWidth="850" pageHeight="1100" math="0" shadow="0">
      <root>
        <mxCell id="0" />
        <mxCell id="1" parent="0" />
        <mxCell id="EbPDHD2GQDb9B9D3rNG0-111" value="" style="group" vertex="1" connectable="0" parent="1">
          <mxGeometry x="690" y="150" width="280" height="680" as="geometry" />
        </mxCell>
        <mxCell id="EbPDHD2GQDb9B9D3rNG0-75" value="" style="html=1;dropTarget=0;whiteSpace=wrap;strokeColor=default;fontFamily=Helvetica;fontSize=12;fontColor=default;fillColor=default;" vertex="1" parent="EbPDHD2GQDb9B9D3rNG0-111">
          <mxGeometry width="280" height="680" as="geometry" />
        </mxCell>
        <mxCell id="EbPDHD2GQDb9B9D3rNG0-76" value="" style="shape=module;jettyWidth=8;jettyHeight=4;strokeColor=default;fontFamily=Helvetica;fontSize=12;fontColor=default;fillColor=default;html=1;" vertex="1" parent="EbPDHD2GQDb9B9D3rNG0-75">
          <mxGeometry x="1" width="20" height="20" relative="1" as="geometry">
            <mxPoint x="-27" y="7" as="offset" />
          </mxGeometry>
        </mxCell>
        <mxCell id="EbPDHD2GQDb9B9D3rNG0-79" value="&amp;lt;&amp;lt;subsystem&amp;gt;&amp;gt;&lt;br&gt;&amp;lt;&amp;lt;component&amp;gt;&amp;gt;&lt;br&gt;Gestor de Candidatos" style="text;align=center;fontStyle=1;verticalAlign=middle;spacingLeft=3;spacingRight=3;strokeColor=none;rotatable=0;points=[[0,0.5],[1,0.5]];portConstraint=eastwest;html=1;fontSize=12;fontFamily=Helvetica;fontColor=default;" vertex="1" parent="EbPDHD2GQDb9B9D3rNG0-111">
          <mxGeometry x="100" y="16" width="80" height="27.040000000000006" as="geometry" />
        </mxCell>
        <mxCell id="EbPDHD2GQDb9B9D3rNG0-83" value="«component»&lt;br&gt;&lt;b&gt;Entrenamiento de Candidatos&lt;/b&gt;" style="html=1;dropTarget=0;whiteSpace=wrap;strokeColor=default;fontFamily=Helvetica;fontSize=12;fontColor=default;fillColor=default;container=0;" vertex="1" parent="EbPDHD2GQDb9B9D3rNG0-111">
          <mxGeometry x="50" y="320" width="180" height="80" as="geometry" />
        </mxCell>
        <mxCell id="EbPDHD2GQDb9B9D3rNG0-95" value="«component»&lt;br&gt;&lt;b&gt;Selección de Candidatos&lt;/b&gt;" style="html=1;dropTarget=0;whiteSpace=wrap;strokeColor=default;fontFamily=Helvetica;fontSize=12;fontColor=default;fillColor=default;container=0;" vertex="1" parent="EbPDHD2GQDb9B9D3rNG0-111">
          <mxGeometry x="50" y="435" width="180" height="80" as="geometry" />
        </mxCell>
        <mxCell id="EbPDHD2GQDb9B9D3rNG0-99" value="" style="shape=module;jettyWidth=8;jettyHeight=4;strokeColor=default;fontFamily=Helvetica;fontSize=12;fontColor=default;fillColor=default;html=1;" vertex="1" parent="EbPDHD2GQDb9B9D3rNG0-111">
          <mxGeometry x="200" y="450" width="20" height="20" as="geometry" />
        </mxCell>
        <mxCell id="EbPDHD2GQDb9B9D3rNG0-73" value="«component»&lt;br&gt;&lt;b&gt;Recomendación de Candidatos&lt;/b&gt;" style="html=1;dropTarget=0;whiteSpace=wrap;strokeColor=default;fontFamily=Helvetica;fontSize=12;fontColor=default;fillColor=default;" vertex="1" parent="EbPDHD2GQDb9B9D3rNG0-111">
          <mxGeometry x="60" y="70" width="180" height="90" as="geometry" />
        </mxCell>
        <mxCell id="EbPDHD2GQDb9B9D3rNG0-74" value="" style="shape=module;jettyWidth=8;jettyHeight=4;strokeColor=default;fontFamily=Helvetica;fontSize=12;fontColor=default;fillColor=default;html=1;" vertex="1" parent="EbPDHD2GQDb9B9D3rNG0-73">
          <mxGeometry x="1" width="20" height="20" relative="1" as="geometry">
            <mxPoint x="-27" y="7" as="offset" />
          </mxGeometry>
        </mxCell>
        <mxCell id="EbPDHD2GQDb9B9D3rNG0-153" value="«component»&lt;br&gt;&lt;b&gt;Persistencia Candidatos&lt;/b&gt;" style="html=1;dropTarget=0;whiteSpace=wrap;strokeColor=default;fontFamily=Helvetica;fontSize=12;fontColor=default;fillColor=default;" vertex="1" parent="EbPDHD2GQDb9B9D3rNG0-111">
          <mxGeometry x="50" y="200" width="180" height="90" as="geometry" />
        </mxCell>
        <mxCell id="EbPDHD2GQDb9B9D3rNG0-154" value="" style="shape=module;jettyWidth=8;jettyHeight=4;strokeColor=default;fontFamily=Helvetica;fontSize=12;fontColor=default;fillColor=default;html=1;" vertex="1" parent="EbPDHD2GQDb9B9D3rNG0-153">
          <mxGeometry x="1" width="20" height="20" relative="1" as="geometry">
            <mxPoint x="-27" y="7" as="offset" />
          </mxGeometry>
        </mxCell>
        <mxCell id="EbPDHD2GQDb9B9D3rNG0-97" value="" style="shape=module;jettyWidth=8;jettyHeight=4;strokeColor=default;fontFamily=Helvetica;fontSize=12;fontColor=default;fillColor=default;html=1;" vertex="1" parent="1">
          <mxGeometry x="890" y="477" width="20" height="20" as="geometry" />
        </mxCell>
        <mxCell id="EbPDHD2GQDb9B9D3rNG0-15" value="" style="ellipse;whiteSpace=wrap;html=1;align=center;aspect=fixed;fillColor=none;strokeColor=none;resizable=0;perimeter=centerPerimeter;rotatable=0;allowArrows=0;points=[];outlineConnect=1;fontFamily=Helvetica;fontSize=12;fontColor=default;" vertex="1" parent="1">
          <mxGeometry x="-120" y="850" width="10" height="10" as="geometry" />
        </mxCell>
        <mxCell id="EbPDHD2GQDb9B9D3rNG0-46" style="edgeStyle=orthogonalEdgeStyle;rounded=0;orthogonalLoop=1;jettySize=auto;html=1;entryX=0;entryY=0.5;entryDx=0;entryDy=0;entryPerimeter=0;fontFamily=Helvetica;fontSize=12;fontColor=default;" edge="1" parent="1" source="EbPDHD2GQDb9B9D3rNG0-18" target="EbPDHD2GQDb9B9D3rNG0-45">
          <mxGeometry relative="1" as="geometry" />
        </mxCell>
        <mxCell id="EbPDHD2GQDb9B9D3rNG0-18" value="«component»&lt;br&gt;&lt;b&gt;Autenticación&lt;/b&gt;" style="html=1;dropTarget=0;whiteSpace=wrap;strokeColor=default;fontFamily=Helvetica;fontSize=12;fontColor=default;fillColor=default;" vertex="1" parent="1">
          <mxGeometry x="310" y="910" width="180" height="90" as="geometry" />
        </mxCell>
        <mxCell id="EbPDHD2GQDb9B9D3rNG0-19" value="" style="shape=module;jettyWidth=8;jettyHeight=4;strokeColor=default;fontFamily=Helvetica;fontSize=12;fontColor=default;fillColor=default;html=1;" vertex="1" parent="EbPDHD2GQDb9B9D3rNG0-18">
          <mxGeometry x="1" width="20" height="20" relative="1" as="geometry">
            <mxPoint x="-27" y="7" as="offset" />
          </mxGeometry>
        </mxCell>
        <mxCell id="EbPDHD2GQDb9B9D3rNG0-22" style="edgeStyle=orthogonalEdgeStyle;rounded=0;orthogonalLoop=1;jettySize=auto;html=1;exitX=1;exitY=0.5;exitDx=0;exitDy=0;exitPerimeter=0;fontFamily=Helvetica;fontSize=12;fontColor=default;" edge="1" parent="1" source="EbPDHD2GQDb9B9D3rNG0-20" target="EbPDHD2GQDb9B9D3rNG0-18">
          <mxGeometry relative="1" as="geometry" />
        </mxCell>
        <mxCell id="EbPDHD2GQDb9B9D3rNG0-20" value="Registro" style="shape=providedRequiredInterface;html=1;verticalLabelPosition=bottom;sketch=0;strokeColor=default;fontFamily=Helvetica;fontSize=12;fontColor=default;fillColor=default;" vertex="1" parent="1">
          <mxGeometry x="140" y="917.5" width="20" height="20" as="geometry" />
        </mxCell>
        <mxCell id="EbPDHD2GQDb9B9D3rNG0-44" style="edgeStyle=orthogonalEdgeStyle;rounded=0;orthogonalLoop=1;jettySize=auto;html=1;exitX=1;exitY=0.5;exitDx=0;exitDy=0;exitPerimeter=0;fontFamily=Helvetica;fontSize=12;fontColor=default;" edge="1" parent="1" source="EbPDHD2GQDb9B9D3rNG0-43" target="EbPDHD2GQDb9B9D3rNG0-18">
          <mxGeometry relative="1" as="geometry" />
        </mxCell>
        <mxCell id="EbPDHD2GQDb9B9D3rNG0-43" value="Login" style="shape=providedRequiredInterface;html=1;verticalLabelPosition=bottom;sketch=0;strokeColor=default;fontFamily=Helvetica;fontSize=12;fontColor=default;fillColor=default;" vertex="1" parent="1">
          <mxGeometry x="140" y="972.5" width="20" height="20" as="geometry" />
        </mxCell>
        <mxCell id="EbPDHD2GQDb9B9D3rNG0-47" style="edgeStyle=orthogonalEdgeStyle;rounded=0;orthogonalLoop=1;jettySize=auto;html=1;exitX=1;exitY=0.5;exitDx=0;exitDy=0;exitPerimeter=0;fontFamily=Helvetica;fontSize=12;fontColor=default;" edge="1" parent="1" source="EbPDHD2GQDb9B9D3rNG0-45" target="EbPDHD2GQDb9B9D3rNG0-23">
          <mxGeometry relative="1" as="geometry" />
        </mxCell>
        <mxCell id="EbPDHD2GQDb9B9D3rNG0-45" value="Gestor de Cliente" style="shape=providedRequiredInterface;html=1;verticalLabelPosition=bottom;sketch=0;strokeColor=default;fontFamily=Helvetica;fontSize=12;fontColor=default;fillColor=default;" vertex="1" parent="1">
          <mxGeometry x="610" y="945" width="20" height="20" as="geometry" />
        </mxCell>
        <mxCell id="EbPDHD2GQDb9B9D3rNG0-56" value="" style="ellipse;whiteSpace=wrap;html=1;align=center;aspect=fixed;fillColor=none;strokeColor=none;resizable=0;perimeter=centerPerimeter;rotatable=0;allowArrows=0;points=[];outlineConnect=1;fontFamily=Helvetica;fontSize=12;fontColor=default;" vertex="1" parent="1">
          <mxGeometry x="397" y="800" width="10" height="10" as="geometry" />
        </mxCell>
        <mxCell id="EbPDHD2GQDb9B9D3rNG0-26" value="" style="group" vertex="1" connectable="0" parent="1">
          <mxGeometry x="740" y="908.5" width="180" height="93" as="geometry" />
        </mxCell>
        <mxCell id="EbPDHD2GQDb9B9D3rNG0-23" value="" style="html=1;dropTarget=0;whiteSpace=wrap;strokeColor=default;fontFamily=Helvetica;fontSize=12;fontColor=default;fillColor=default;" vertex="1" parent="EbPDHD2GQDb9B9D3rNG0-26">
          <mxGeometry width="180" height="93" as="geometry" />
        </mxCell>
        <mxCell id="EbPDHD2GQDb9B9D3rNG0-24" value="" style="shape=module;jettyWidth=8;jettyHeight=4;strokeColor=default;fontFamily=Helvetica;fontSize=12;fontColor=default;fillColor=default;html=1;" vertex="1" parent="EbPDHD2GQDb9B9D3rNG0-23">
          <mxGeometry x="1" width="20" height="20" relative="1" as="geometry">
            <mxPoint x="-27" y="7" as="offset" />
          </mxGeometry>
        </mxCell>
        <mxCell id="EbPDHD2GQDb9B9D3rNG0-25" value="&amp;lt;&amp;lt;component&amp;gt;&amp;gt;&lt;br&gt;Gestor de Cliente" style="text;align=center;fontStyle=1;verticalAlign=middle;spacingLeft=3;spacingRight=3;strokeColor=none;rotatable=0;points=[[0,0.5],[1,0.5]];portConstraint=eastwest;html=1;fontSize=12;fontFamily=Helvetica;fontColor=default;" vertex="1" parent="EbPDHD2GQDb9B9D3rNG0-26">
          <mxGeometry x="30" y="4.49" width="120" height="45.51" as="geometry" />
        </mxCell>
        <mxCell id="EbPDHD2GQDb9B9D3rNG0-60" value="«subsystem»&lt;br&gt;&amp;lt;&amp;lt;component&amp;gt;&amp;gt;&lt;br&gt;&lt;b&gt;Portal Web&lt;/b&gt;" style="html=1;dropTarget=0;whiteSpace=wrap;strokeColor=default;fontFamily=Helvetica;fontSize=12;fontColor=default;fillColor=default;" vertex="1" parent="1">
          <mxGeometry x="309" y="690" width="180" height="90" as="geometry" />
        </mxCell>
        <mxCell id="EbPDHD2GQDb9B9D3rNG0-61" value="" style="shape=module;jettyWidth=8;jettyHeight=4;strokeColor=default;fontFamily=Helvetica;fontSize=12;fontColor=default;fillColor=default;html=1;" vertex="1" parent="EbPDHD2GQDb9B9D3rNG0-60">
          <mxGeometry x="1" width="20" height="20" relative="1" as="geometry">
            <mxPoint x="-27" y="7" as="offset" />
          </mxGeometry>
        </mxCell>
        <mxCell id="EbPDHD2GQDb9B9D3rNG0-63" value="" style="rounded=0;orthogonalLoop=1;jettySize=auto;html=1;endArrow=halfCircle;endFill=0;endSize=6;strokeWidth=1;sketch=0;fontFamily=Helvetica;fontSize=12;fontColor=default;" edge="1" target="EbPDHD2GQDb9B9D3rNG0-65" parent="1" source="EbPDHD2GQDb9B9D3rNG0-18">
          <mxGeometry relative="1" as="geometry">
            <mxPoint x="419" y="835" as="sourcePoint" />
          </mxGeometry>
        </mxCell>
        <mxCell id="EbPDHD2GQDb9B9D3rNG0-64" value="" style="rounded=0;orthogonalLoop=1;jettySize=auto;html=1;endArrow=oval;endFill=0;sketch=0;sourcePerimeterSpacing=0;targetPerimeterSpacing=0;endSize=10;fontFamily=Helvetica;fontSize=12;fontColor=default;" edge="1" target="EbPDHD2GQDb9B9D3rNG0-65" parent="1" source="EbPDHD2GQDb9B9D3rNG0-60">
          <mxGeometry relative="1" as="geometry">
            <mxPoint x="379" y="835" as="sourcePoint" />
          </mxGeometry>
        </mxCell>
        <mxCell id="EbPDHD2GQDb9B9D3rNG0-67" value="" style="group" vertex="1" connectable="0" parent="1">
          <mxGeometry x="394" y="820" width="76" height="30" as="geometry" />
        </mxCell>
        <mxCell id="EbPDHD2GQDb9B9D3rNG0-65" value="" style="ellipse;whiteSpace=wrap;html=1;align=center;aspect=fixed;fillColor=none;strokeColor=none;resizable=0;perimeter=centerPerimeter;rotatable=0;allowArrows=0;points=[];outlineConnect=1;fontFamily=Helvetica;fontSize=12;fontColor=default;" vertex="1" parent="EbPDHD2GQDb9B9D3rNG0-67">
          <mxGeometry y="10" width="10" height="10" as="geometry" />
        </mxCell>
        <mxCell id="EbPDHD2GQDb9B9D3rNG0-66" value="Sesión" style="text;html=1;strokeColor=none;fillColor=none;align=center;verticalAlign=middle;whiteSpace=wrap;rounded=0;fontSize=12;fontFamily=Helvetica;fontColor=default;" vertex="1" parent="EbPDHD2GQDb9B9D3rNG0-67">
          <mxGeometry x="16" width="60" height="30" as="geometry" />
        </mxCell>
        <mxCell id="EbPDHD2GQDb9B9D3rNG0-68" value="«component»&lt;br&gt;&lt;b&gt;Clasificación de Candidatos&lt;/b&gt;" style="html=1;dropTarget=0;whiteSpace=wrap;strokeColor=default;fontFamily=Helvetica;fontSize=12;fontColor=default;fillColor=default;" vertex="1" parent="1">
          <mxGeometry x="740" y="690" width="180" height="90" as="geometry" />
        </mxCell>
        <mxCell id="EbPDHD2GQDb9B9D3rNG0-69" value="" style="shape=module;jettyWidth=8;jettyHeight=4;strokeColor=default;fontFamily=Helvetica;fontSize=12;fontColor=default;fillColor=default;html=1;" vertex="1" parent="EbPDHD2GQDb9B9D3rNG0-68">
          <mxGeometry x="1" width="20" height="20" relative="1" as="geometry">
            <mxPoint x="-27" y="7" as="offset" />
          </mxGeometry>
        </mxCell>
        <mxCell id="EbPDHD2GQDb9B9D3rNG0-82" value="" style="group" vertex="1" connectable="0" parent="1">
          <mxGeometry x="-230" y="530" width="270" height="370" as="geometry" />
        </mxCell>
        <mxCell id="EbPDHD2GQDb9B9D3rNG0-77" value="" style="html=1;dropTarget=0;whiteSpace=wrap;strokeColor=default;fontFamily=Helvetica;fontSize=12;fontColor=default;fillColor=default;" vertex="1" parent="EbPDHD2GQDb9B9D3rNG0-82">
          <mxGeometry width="270" height="370.00000000000006" as="geometry" />
        </mxCell>
        <mxCell id="EbPDHD2GQDb9B9D3rNG0-78" value="" style="shape=module;jettyWidth=8;jettyHeight=4;strokeColor=default;fontFamily=Helvetica;fontSize=12;fontColor=default;fillColor=default;html=1;" vertex="1" parent="EbPDHD2GQDb9B9D3rNG0-77">
          <mxGeometry x="1" width="20" height="20" relative="1" as="geometry">
            <mxPoint x="-27" y="7" as="offset" />
          </mxGeometry>
        </mxCell>
        <mxCell id="EbPDHD2GQDb9B9D3rNG0-80" value="&amp;lt;&amp;lt;subsystem&amp;gt;&amp;gt;&lt;br style=&quot;font-weight: 400;&quot;&gt;&lt;span style=&quot;font-weight: 400;&quot;&gt;«component»&lt;/span&gt;&lt;br style=&quot;font-weight: 400;&quot;&gt;&lt;span style=&quot;font-weight: 400;&quot;&gt;Gestor de Empresa&lt;/span&gt;" style="text;align=center;fontStyle=1;verticalAlign=middle;spacingLeft=3;spacingRight=3;strokeColor=none;rotatable=0;points=[[0,0.5],[1,0.5]];portConstraint=eastwest;html=1;fontSize=12;fontFamily=Helvetica;fontColor=default;" vertex="1" parent="EbPDHD2GQDb9B9D3rNG0-82">
          <mxGeometry x="95" y="19.47368421052632" width="80" height="25.315789473684212" as="geometry" />
        </mxCell>
        <mxCell id="EbPDHD2GQDb9B9D3rNG0-91" value="«component»&lt;br&gt;&lt;b&gt;Gestor de Proyectos&lt;/b&gt;" style="html=1;dropTarget=0;whiteSpace=wrap;strokeColor=default;fontFamily=Helvetica;fontSize=12;fontColor=default;fillColor=default;" vertex="1" parent="EbPDHD2GQDb9B9D3rNG0-82">
          <mxGeometry x="40" y="260.0047368421053" width="180" height="87.63157894736842" as="geometry" />
        </mxCell>
        <mxCell id="EbPDHD2GQDb9B9D3rNG0-92" value="" style="shape=module;jettyWidth=8;jettyHeight=4;strokeColor=default;fontFamily=Helvetica;fontSize=12;fontColor=default;fillColor=default;html=1;" vertex="1" parent="EbPDHD2GQDb9B9D3rNG0-91">
          <mxGeometry x="1" width="20" height="20" relative="1" as="geometry">
            <mxPoint x="-27" y="7" as="offset" />
          </mxGeometry>
        </mxCell>
        <mxCell id="EbPDHD2GQDb9B9D3rNG0-148" value="«component»&lt;br&gt;&lt;b&gt;Configuración Proyecto&lt;/b&gt;" style="html=1;dropTarget=0;whiteSpace=wrap;strokeColor=default;fontFamily=Helvetica;fontSize=12;fontColor=default;fillColor=default;" vertex="1" parent="EbPDHD2GQDb9B9D3rNG0-82">
          <mxGeometry x="40" y="130" width="180" height="90" as="geometry" />
        </mxCell>
        <mxCell id="EbPDHD2GQDb9B9D3rNG0-149" value="" style="shape=module;jettyWidth=8;jettyHeight=4;strokeColor=default;fontFamily=Helvetica;fontSize=12;fontColor=default;fillColor=default;html=1;" vertex="1" parent="EbPDHD2GQDb9B9D3rNG0-148">
          <mxGeometry x="1" width="20" height="20" relative="1" as="geometry">
            <mxPoint x="-27" y="7" as="offset" />
          </mxGeometry>
        </mxCell>
        <mxCell id="EbPDHD2GQDb9B9D3rNG0-106" value="«component»&lt;br&gt;&lt;b&gt;Motor de Emparejamiento&lt;/b&gt;" style="html=1;dropTarget=0;whiteSpace=wrap;strokeColor=default;fontFamily=Helvetica;fontSize=12;fontColor=default;fillColor=default;" vertex="1" parent="1">
          <mxGeometry x="30" y="260" width="180" height="90" as="geometry" />
        </mxCell>
        <mxCell id="EbPDHD2GQDb9B9D3rNG0-107" value="" style="shape=module;jettyWidth=8;jettyHeight=4;strokeColor=default;fontFamily=Helvetica;fontSize=12;fontColor=default;fillColor=default;html=1;" vertex="1" parent="EbPDHD2GQDb9B9D3rNG0-106">
          <mxGeometry x="1" width="20" height="20" relative="1" as="geometry">
            <mxPoint x="-27" y="7" as="offset" />
          </mxGeometry>
        </mxCell>
        <mxCell id="EbPDHD2GQDb9B9D3rNG0-116" value="" style="rounded=0;orthogonalLoop=1;jettySize=auto;html=1;endArrow=halfCircle;endFill=0;endSize=6;strokeWidth=1;sketch=0;fontFamily=Helvetica;fontSize=12;fontColor=default;" edge="1" target="EbPDHD2GQDb9B9D3rNG0-118" parent="1" source="EbPDHD2GQDb9B9D3rNG0-106">
          <mxGeometry relative="1" as="geometry">
            <mxPoint x="422" y="342" as="sourcePoint" />
          </mxGeometry>
        </mxCell>
        <mxCell id="EbPDHD2GQDb9B9D3rNG0-160" value="sujerencias de candidatos" style="edgeLabel;html=1;align=center;verticalAlign=middle;resizable=0;points=[];fontSize=12;fontFamily=Helvetica;fontColor=default;" vertex="1" connectable="0" parent="EbPDHD2GQDb9B9D3rNG0-116">
          <mxGeometry x="0.352" y="-1" relative="1" as="geometry">
            <mxPoint y="1" as="offset" />
          </mxGeometry>
        </mxCell>
        <mxCell id="EbPDHD2GQDb9B9D3rNG0-117" value="" style="rounded=0;orthogonalLoop=1;jettySize=auto;html=1;endArrow=oval;endFill=0;sketch=0;sourcePerimeterSpacing=0;targetPerimeterSpacing=0;endSize=10;fontFamily=Helvetica;fontSize=12;fontColor=default;exitX=1;exitY=0.5;exitDx=0;exitDy=0;" edge="1" target="EbPDHD2GQDb9B9D3rNG0-118" parent="1" source="EbPDHD2GQDb9B9D3rNG0-148">
          <mxGeometry relative="1" as="geometry">
            <mxPoint x="382" y="342" as="sourcePoint" />
          </mxGeometry>
        </mxCell>
        <mxCell id="EbPDHD2GQDb9B9D3rNG0-118" value="" style="ellipse;whiteSpace=wrap;html=1;align=center;aspect=fixed;fillColor=none;strokeColor=none;resizable=0;perimeter=centerPerimeter;rotatable=0;allowArrows=0;points=[];outlineConnect=1;fontFamily=Helvetica;fontSize=12;fontColor=default;" vertex="1" parent="1">
          <mxGeometry x="120" y="610" width="10" height="10" as="geometry" />
        </mxCell>
        <mxCell id="EbPDHD2GQDb9B9D3rNG0-120" value="" style="rounded=0;orthogonalLoop=1;jettySize=auto;html=1;endArrow=halfCircle;endFill=0;endSize=6;strokeWidth=1;sketch=0;fontFamily=Helvetica;fontSize=12;fontColor=default;exitX=0;exitY=0.5;exitDx=0;exitDy=0;" edge="1" target="EbPDHD2GQDb9B9D3rNG0-122" parent="1" source="EbPDHD2GQDb9B9D3rNG0-73">
          <mxGeometry relative="1" as="geometry">
            <mxPoint x="610" y="475" as="sourcePoint" />
          </mxGeometry>
        </mxCell>
        <mxCell id="EbPDHD2GQDb9B9D3rNG0-121" value="" style="rounded=0;orthogonalLoop=1;jettySize=auto;html=1;endArrow=oval;endFill=0;sketch=0;sourcePerimeterSpacing=0;targetPerimeterSpacing=0;endSize=10;fontFamily=Helvetica;fontSize=12;fontColor=default;" edge="1" target="EbPDHD2GQDb9B9D3rNG0-122" parent="1" source="EbPDHD2GQDb9B9D3rNG0-106">
          <mxGeometry relative="1" as="geometry">
            <mxPoint x="570" y="475" as="sourcePoint" />
          </mxGeometry>
        </mxCell>
        <mxCell id="EbPDHD2GQDb9B9D3rNG0-122" value="" style="ellipse;whiteSpace=wrap;html=1;align=center;aspect=fixed;fillColor=none;strokeColor=none;resizable=0;perimeter=centerPerimeter;rotatable=0;allowArrows=0;points=[];outlineConnect=1;fontFamily=Helvetica;fontSize=12;fontColor=default;" vertex="1" parent="1">
          <mxGeometry x="280" y="260" width="10" height="10" as="geometry" />
        </mxCell>
        <mxCell id="EbPDHD2GQDb9B9D3rNG0-125" value="" style="rounded=0;orthogonalLoop=1;jettySize=auto;html=1;endArrow=halfCircle;endFill=0;endSize=6;strokeWidth=1;sketch=0;fontSize=12;curved=1;fontFamily=Helvetica;fontColor=default;exitX=0;exitY=0.5;exitDx=0;exitDy=0;" edge="1" target="EbPDHD2GQDb9B9D3rNG0-126" parent="1" source="EbPDHD2GQDb9B9D3rNG0-68">
          <mxGeometry relative="1" as="geometry">
            <mxPoint x="655" y="745" as="sourcePoint" />
          </mxGeometry>
        </mxCell>
        <mxCell id="EbPDHD2GQDb9B9D3rNG0-126" value="proceso de calificación" style="ellipse;whiteSpace=wrap;html=1;align=center;aspect=fixed;fillColor=none;strokeColor=none;resizable=0;perimeter=centerPerimeter;rotatable=0;allowArrows=0;points=[];outlineConnect=1;fontFamily=Helvetica;fontSize=12;fontColor=default;" vertex="1" parent="1">
          <mxGeometry x="620" y="730" width="10" height="10" as="geometry" />
        </mxCell>
        <mxCell id="EbPDHD2GQDb9B9D3rNG0-127" value="" style="rounded=0;orthogonalLoop=1;jettySize=auto;html=1;endArrow=halfCircle;endFill=0;endSize=6;strokeWidth=1;sketch=0;fontSize=12;curved=1;fontFamily=Helvetica;fontColor=default;exitX=0;exitY=0.5;exitDx=0;exitDy=0;entryX=0.4;entryY=0.55;entryDx=0;entryDy=0;entryPerimeter=0;" edge="1" target="EbPDHD2GQDb9B9D3rNG0-155" parent="1" source="EbPDHD2GQDb9B9D3rNG0-83">
          <mxGeometry relative="1" as="geometry">
            <mxPoint x="715" y="389.5" as="sourcePoint" />
            <mxPoint x="600" y="510" as="targetPoint" />
          </mxGeometry>
        </mxCell>
        <mxCell id="EbPDHD2GQDb9B9D3rNG0-135" value="entrenamiento" style="edgeLabel;html=1;align=center;verticalAlign=middle;resizable=0;points=[];fontSize=12;fontFamily=Helvetica;fontColor=default;" vertex="1" connectable="0" parent="EbPDHD2GQDb9B9D3rNG0-127">
          <mxGeometry x="0.7714" y="1" relative="1" as="geometry">
            <mxPoint x="108" y="-29" as="offset" />
          </mxGeometry>
        </mxCell>
        <mxCell id="EbPDHD2GQDb9B9D3rNG0-128" value="" style="ellipse;whiteSpace=wrap;html=1;align=center;aspect=fixed;fillColor=none;strokeColor=none;resizable=0;perimeter=centerPerimeter;rotatable=0;allowArrows=0;points=[];outlineConnect=1;fontFamily=Helvetica;fontSize=12;fontColor=default;" vertex="1" parent="1">
          <mxGeometry x="630" y="395" width="10" height="10" as="geometry" />
        </mxCell>
        <mxCell id="EbPDHD2GQDb9B9D3rNG0-131" value="" style="ellipse;whiteSpace=wrap;html=1;align=center;aspect=fixed;fillColor=none;strokeColor=none;resizable=0;perimeter=centerPerimeter;rotatable=0;allowArrows=0;points=[];outlineConnect=1;fontFamily=Helvetica;fontSize=12;fontColor=default;" vertex="1" parent="1">
          <mxGeometry x="640" y="495" width="10" height="10" as="geometry" />
        </mxCell>
        <mxCell id="EbPDHD2GQDb9B9D3rNG0-132" value="" style="rounded=0;orthogonalLoop=1;jettySize=auto;html=1;endArrow=halfCircle;endFill=0;endSize=6;strokeWidth=1;sketch=0;fontSize=12;curved=1;fontFamily=Helvetica;fontColor=default;exitX=0;exitY=0.5;exitDx=0;exitDy=0;entryX=0.4;entryY=0.4;entryDx=0;entryDy=0;entryPerimeter=0;" edge="1" target="EbPDHD2GQDb9B9D3rNG0-155" parent="1" source="EbPDHD2GQDb9B9D3rNG0-95">
          <mxGeometry relative="1" as="geometry">
            <mxPoint x="615" y="485" as="sourcePoint" />
            <mxPoint x="604.9999999999998" y="625" as="targetPoint" />
          </mxGeometry>
        </mxCell>
        <mxCell id="EbPDHD2GQDb9B9D3rNG0-156" value="selección" style="edgeLabel;html=1;align=center;verticalAlign=middle;resizable=0;points=[];fontSize=12;fontFamily=Helvetica;fontColor=default;" vertex="1" connectable="0" parent="EbPDHD2GQDb9B9D3rNG0-132">
          <mxGeometry x="0.6301" y="1" relative="1" as="geometry">
            <mxPoint x="108" y="6" as="offset" />
          </mxGeometry>
        </mxCell>
        <mxCell id="EbPDHD2GQDb9B9D3rNG0-136" value="" style="rounded=0;orthogonalLoop=1;jettySize=auto;html=1;endArrow=halfCircle;endFill=0;endSize=6;strokeWidth=1;sketch=0;fontSize=12;curved=1;fontFamily=Helvetica;fontColor=default;" edge="1" target="EbPDHD2GQDb9B9D3rNG0-118" parent="1" source="EbPDHD2GQDb9B9D3rNG0-153">
          <mxGeometry relative="1" as="geometry">
            <mxPoint x="740" y="280" as="sourcePoint" />
            <mxPoint x="580" y="350" as="targetPoint" />
          </mxGeometry>
        </mxCell>
        <mxCell id="EbPDHD2GQDb9B9D3rNG0-138" value="persistencia candidato" style="edgeLabel;html=1;align=center;verticalAlign=middle;resizable=0;points=[];fontSize=12;fontFamily=Helvetica;fontColor=default;" vertex="1" connectable="0" parent="EbPDHD2GQDb9B9D3rNG0-136">
          <mxGeometry x="0.708" y="1" relative="1" as="geometry">
            <mxPoint x="155" y="-48" as="offset" />
          </mxGeometry>
        </mxCell>
        <mxCell id="EbPDHD2GQDb9B9D3rNG0-137" value="" style="ellipse;whiteSpace=wrap;html=1;align=center;aspect=fixed;fillColor=none;strokeColor=none;resizable=0;perimeter=centerPerimeter;rotatable=0;allowArrows=0;points=[];outlineConnect=1;fontFamily=Helvetica;fontSize=12;fontColor=default;" vertex="1" parent="1">
          <mxGeometry x="620" y="275" width="10" height="10" as="geometry" />
        </mxCell>
        <mxCell id="EbPDHD2GQDb9B9D3rNG0-145" value="" style="rounded=0;orthogonalLoop=1;jettySize=auto;html=1;endArrow=halfCircle;endFill=0;endSize=6;strokeWidth=1;sketch=0;fontFamily=Helvetica;fontSize=12;fontColor=default;exitX=1;exitY=0.5;exitDx=0;exitDy=0;" edge="1" target="EbPDHD2GQDb9B9D3rNG0-147" parent="1" source="EbPDHD2GQDb9B9D3rNG0-91">
          <mxGeometry relative="1" as="geometry">
            <mxPoint x="200" y="725" as="sourcePoint" />
          </mxGeometry>
        </mxCell>
        <mxCell id="EbPDHD2GQDb9B9D3rNG0-161" value="gestión de proyectos" style="edgeLabel;html=1;align=center;verticalAlign=middle;resizable=0;points=[];fontSize=12;fontFamily=Helvetica;fontColor=default;" vertex="1" connectable="0" parent="EbPDHD2GQDb9B9D3rNG0-145">
          <mxGeometry x="0.8017" y="-4" relative="1" as="geometry">
            <mxPoint x="22" y="21" as="offset" />
          </mxGeometry>
        </mxCell>
        <mxCell id="EbPDHD2GQDb9B9D3rNG0-146" value="" style="rounded=0;orthogonalLoop=1;jettySize=auto;html=1;endArrow=oval;endFill=0;sketch=0;sourcePerimeterSpacing=0;targetPerimeterSpacing=0;endSize=10;fontFamily=Helvetica;fontSize=12;fontColor=default;exitX=0;exitY=0.5;exitDx=0;exitDy=0;" edge="1" target="EbPDHD2GQDb9B9D3rNG0-147" parent="1" source="EbPDHD2GQDb9B9D3rNG0-60">
          <mxGeometry relative="1" as="geometry">
            <mxPoint x="160" y="725" as="sourcePoint" />
          </mxGeometry>
        </mxCell>
        <mxCell id="EbPDHD2GQDb9B9D3rNG0-147" value="" style="ellipse;whiteSpace=wrap;html=1;align=center;aspect=fixed;fillColor=none;strokeColor=none;resizable=0;perimeter=centerPerimeter;rotatable=0;allowArrows=0;points=[];outlineConnect=1;fontFamily=Helvetica;fontSize=12;fontColor=default;" vertex="1" parent="1">
          <mxGeometry x="175" y="720" width="10" height="10" as="geometry" />
        </mxCell>
        <mxCell id="EbPDHD2GQDb9B9D3rNG0-159" style="edgeStyle=orthogonalEdgeStyle;rounded=0;orthogonalLoop=1;jettySize=auto;html=1;exitX=0;exitY=0.5;exitDx=0;exitDy=0;exitPerimeter=0;fontFamily=Helvetica;fontSize=12;fontColor=default;endArrow=none;endFill=0;" edge="1" parent="1" source="EbPDHD2GQDb9B9D3rNG0-155" target="EbPDHD2GQDb9B9D3rNG0-60">
          <mxGeometry relative="1" as="geometry" />
        </mxCell>
        <mxCell id="EbPDHD2GQDb9B9D3rNG0-155" value="" style="shape=providedRequiredInterface;html=1;verticalLabelPosition=bottom;sketch=0;strokeColor=default;fontFamily=Helvetica;fontSize=12;fontColor=default;fillColor=default;" vertex="1" parent="1">
          <mxGeometry x="440" y="590" width="20" height="20" as="geometry" />
        </mxCell>
      </root>
    </mxGraphModel>
  </diagram>
  <diagram id="07D7jQvkCGUbIFekFWw_" name="Despliegue">
    <mxGraphModel dx="1375" dy="927" grid="1" gridSize="10" guides="1" tooltips="1" connect="1" arrows="1" fold="1" page="1" pageScale="1" pageWidth="850" pageHeight="1100" math="0" shadow="0">
      <root>
        <mxCell id="0" />
        <mxCell id="1" parent="0" />
        <mxCell id="-jqCXv5XumxJ_PvqGW5K-4" value="" style="group" vertex="1" connectable="0" parent="1">
          <mxGeometry x="180" y="470" width="180" height="120" as="geometry" />
        </mxCell>
        <mxCell id="-jqCXv5XumxJ_PvqGW5K-1" value="Navegador Cliente&lt;br&gt;&amp;lt;&amp;lt;device&amp;gt;&amp;gt;" style="verticalAlign=top;align=left;spacingTop=8;spacingLeft=2;spacingRight=12;shape=cube;size=10;direction=south;fontStyle=4;html=1;whiteSpace=wrap;strokeColor=default;fontFamily=Helvetica;fontSize=12;fontColor=default;fillColor=default;" vertex="1" parent="-jqCXv5XumxJ_PvqGW5K-4">
          <mxGeometry width="180" height="120" as="geometry" />
        </mxCell>
        <mxCell id="-jqCXv5XumxJ_PvqGW5K-2" value="«Annotation»&lt;br&gt;&lt;b&gt;Página Web ABC Jobs&lt;/b&gt;" style="html=1;dropTarget=0;whiteSpace=wrap;strokeColor=default;fontFamily=Helvetica;fontSize=12;fontColor=default;fillColor=default;" vertex="1" parent="-jqCXv5XumxJ_PvqGW5K-4">
          <mxGeometry x="15" y="40" width="130" height="65" as="geometry" />
        </mxCell>
        <mxCell id="-jqCXv5XumxJ_PvqGW5K-3" value="" style="shape=module;jettyWidth=8;jettyHeight=4;strokeColor=default;fontFamily=Helvetica;fontSize=12;fontColor=default;fillColor=default;html=1;" vertex="1" parent="-jqCXv5XumxJ_PvqGW5K-2">
          <mxGeometry x="1" width="20" height="20" relative="1" as="geometry">
            <mxPoint x="-27" y="7" as="offset" />
          </mxGeometry>
        </mxCell>
        <mxCell id="-jqCXv5XumxJ_PvqGW5K-5" value="Servidor Emparejamiento&lt;br&gt;&amp;lt;&amp;lt;device&amp;gt;&amp;gt;" style="verticalAlign=top;align=left;spacingTop=8;spacingLeft=2;spacingRight=12;shape=cube;size=10;direction=south;fontStyle=4;html=1;whiteSpace=wrap;strokeColor=default;fontFamily=Helvetica;fontSize=12;fontColor=default;fillColor=default;" vertex="1" parent="1">
          <mxGeometry x="90" y="90" width="250" height="220" as="geometry" />
        </mxCell>
        <mxCell id="EVhO_KFVvyRUCP2irmnt-4" style="edgeStyle=orthogonalEdgeStyle;rounded=0;orthogonalLoop=1;jettySize=auto;html=1;exitX=0.5;exitY=0;exitDx=0;exitDy=0;fontFamily=Helvetica;fontSize=12;fontColor=default;dashed=1;dashPattern=8 8;endArrow=open;endFill=0;" edge="1" parent="1" source="-jqCXv5XumxJ_PvqGW5K-6" target="EVhO_KFVvyRUCP2irmnt-2">
          <mxGeometry relative="1" as="geometry" />
        </mxCell>
        <mxCell id="-jqCXv5XumxJ_PvqGW5K-6" value="«component»&lt;br&gt;&lt;b&gt;Motor Emparejamiento&lt;/b&gt;" style="html=1;dropTarget=0;whiteSpace=wrap;strokeColor=default;fontFamily=Helvetica;fontSize=12;fontColor=default;fillColor=default;" vertex="1" parent="1">
          <mxGeometry x="100" y="230" width="140" height="70" as="geometry" />
        </mxCell>
        <mxCell id="-jqCXv5XumxJ_PvqGW5K-7" value="" style="shape=module;jettyWidth=8;jettyHeight=4;strokeColor=default;fontFamily=Helvetica;fontSize=12;fontColor=default;fillColor=default;html=1;" vertex="1" parent="-jqCXv5XumxJ_PvqGW5K-6">
          <mxGeometry x="1" width="20" height="20" relative="1" as="geometry">
            <mxPoint x="-27" y="7" as="offset" />
          </mxGeometry>
        </mxCell>
        <mxCell id="EVhO_KFVvyRUCP2irmnt-1" value="Lambdas Candidato&lt;br&gt;&amp;lt;&amp;lt;device&amp;gt;&amp;gt;" style="verticalAlign=top;align=left;spacingTop=8;spacingLeft=2;spacingRight=12;shape=cube;size=10;direction=south;fontStyle=4;html=1;whiteSpace=wrap;strokeColor=default;fontFamily=Helvetica;fontSize=12;fontColor=default;fillColor=default;" vertex="1" parent="1">
          <mxGeometry x="400" y="90" width="350" height="310" as="geometry" />
        </mxCell>
        <mxCell id="EVhO_KFVvyRUCP2irmnt-2" value="«artifact»&lt;br&gt;&lt;b&gt;emparejamiento.py&lt;/b&gt;" style="html=1;dropTarget=0;whiteSpace=wrap;strokeColor=default;fontFamily=Helvetica;fontSize=12;fontColor=default;fillColor=default;" vertex="1" parent="1">
          <mxGeometry x="190" y="130" width="130" height="65" as="geometry" />
        </mxCell>
        <mxCell id="EVhO_KFVvyRUCP2irmnt-3" value="" style="shape=module;jettyWidth=8;jettyHeight=4;strokeColor=default;fontFamily=Helvetica;fontSize=12;fontColor=default;fillColor=default;html=1;" vertex="1" parent="EVhO_KFVvyRUCP2irmnt-2">
          <mxGeometry x="1" width="20" height="20" relative="1" as="geometry">
            <mxPoint x="-27" y="7" as="offset" />
          </mxGeometry>
        </mxCell>
        <mxCell id="EVhO_KFVvyRUCP2irmnt-6" value="«artifact»&lt;br&gt;&lt;b&gt;lambdas_cliente.py&lt;/b&gt;" style="html=1;dropTarget=0;whiteSpace=wrap;strokeColor=default;fontFamily=Helvetica;fontSize=12;fontColor=default;fillColor=default;" vertex="1" parent="1">
          <mxGeometry x="425" y="145" width="140" height="65" as="geometry" />
        </mxCell>
        <mxCell id="EVhO_KFVvyRUCP2irmnt-7" value="" style="shape=module;jettyWidth=8;jettyHeight=4;strokeColor=default;fontFamily=Helvetica;fontSize=12;fontColor=default;fillColor=default;html=1;" vertex="1" parent="EVhO_KFVvyRUCP2irmnt-6">
          <mxGeometry x="1" width="20" height="20" relative="1" as="geometry">
            <mxPoint x="-27" y="7" as="offset" />
          </mxGeometry>
        </mxCell>
        <mxCell id="EVhO_KFVvyRUCP2irmnt-8" value="«component»&lt;br&gt;&lt;b&gt;Recomendacion Candidato&lt;/b&gt;" style="html=1;dropTarget=0;whiteSpace=wrap;strokeColor=default;fontFamily=Helvetica;fontSize=12;fontColor=default;fillColor=default;" vertex="1" parent="1">
          <mxGeometry x="425" y="225" width="140" height="70" as="geometry" />
        </mxCell>
        <mxCell id="EVhO_KFVvyRUCP2irmnt-9" value="" style="shape=module;jettyWidth=8;jettyHeight=4;strokeColor=default;fontFamily=Helvetica;fontSize=12;fontColor=default;fillColor=default;html=1;" vertex="1" parent="EVhO_KFVvyRUCP2irmnt-8">
          <mxGeometry x="1" width="20" height="20" relative="1" as="geometry">
            <mxPoint x="-27" y="7" as="offset" />
          </mxGeometry>
        </mxCell>
        <mxCell id="EVhO_KFVvyRUCP2irmnt-10" value="«artifact»&lt;br&gt;&lt;b&gt;Entrenamiento Candidato&lt;/b&gt;" style="html=1;dropTarget=0;whiteSpace=wrap;strokeColor=default;fontFamily=Helvetica;fontSize=12;fontColor=default;fillColor=default;" vertex="1" parent="1">
          <mxGeometry x="425" y="315" width="140" height="70" as="geometry" />
        </mxCell>
        <mxCell id="EVhO_KFVvyRUCP2irmnt-11" value="" style="shape=module;jettyWidth=8;jettyHeight=4;strokeColor=default;fontFamily=Helvetica;fontSize=12;fontColor=default;fillColor=default;html=1;" vertex="1" parent="EVhO_KFVvyRUCP2irmnt-10">
          <mxGeometry x="1" width="20" height="20" relative="1" as="geometry">
            <mxPoint x="-27" y="7" as="offset" />
          </mxGeometry>
        </mxCell>
        <mxCell id="EVhO_KFVvyRUCP2irmnt-12" value="«component»&lt;br&gt;&lt;b&gt;Persistencia Candidato&lt;/b&gt;" style="html=1;dropTarget=0;whiteSpace=wrap;strokeColor=default;fontFamily=Helvetica;fontSize=12;fontColor=default;fillColor=default;" vertex="1" parent="1">
          <mxGeometry x="585" y="140" width="140" height="70" as="geometry" />
        </mxCell>
        <mxCell id="EVhO_KFVvyRUCP2irmnt-13" value="" style="shape=module;jettyWidth=8;jettyHeight=4;strokeColor=default;fontFamily=Helvetica;fontSize=12;fontColor=default;fillColor=default;html=1;" vertex="1" parent="EVhO_KFVvyRUCP2irmnt-12">
          <mxGeometry x="1" width="20" height="20" relative="1" as="geometry">
            <mxPoint x="-27" y="7" as="offset" />
          </mxGeometry>
        </mxCell>
        <mxCell id="EVhO_KFVvyRUCP2irmnt-14" value="«component»&lt;br&gt;&lt;b&gt;Selección&lt;/b&gt;" style="html=1;dropTarget=0;whiteSpace=wrap;strokeColor=default;fontFamily=Helvetica;fontSize=12;fontColor=default;fillColor=default;" vertex="1" parent="1">
          <mxGeometry x="585" y="315" width="140" height="70" as="geometry" />
        </mxCell>
        <mxCell id="B4jyRbYKFRGaW_wvomIE-1" value="«component»&lt;br&gt;&lt;b&gt;Clasificación&lt;/b&gt;" style="html=1;dropTarget=0;whiteSpace=wrap;strokeColor=default;fontFamily=Helvetica;fontSize=12;fontColor=default;fillColor=default;" vertex="1" parent="1">
          <mxGeometry x="585" y="225" width="140" height="70" as="geometry" />
        </mxCell>
        <mxCell id="B4jyRbYKFRGaW_wvomIE-2" value="" style="shape=module;jettyWidth=8;jettyHeight=4;strokeColor=default;fontFamily=Helvetica;fontSize=12;fontColor=default;fillColor=default;html=1;" vertex="1" parent="B4jyRbYKFRGaW_wvomIE-1">
          <mxGeometry x="1" width="20" height="20" relative="1" as="geometry">
            <mxPoint x="-27" y="7" as="offset" />
          </mxGeometry>
        </mxCell>
        <mxCell id="B4jyRbYKFRGaW_wvomIE-3" value="Lambdas Empresa&lt;br&gt;&amp;lt;&amp;lt;device&amp;gt;&amp;gt;" style="verticalAlign=top;align=left;spacingTop=8;spacingLeft=2;spacingRight=12;shape=cube;size=10;direction=south;fontStyle=4;html=1;whiteSpace=wrap;strokeColor=default;fontFamily=Helvetica;fontSize=12;fontColor=default;fillColor=default;" vertex="1" parent="1">
          <mxGeometry x="510" y="600" width="173.5" height="310" as="geometry" />
        </mxCell>
        <mxCell id="B4jyRbYKFRGaW_wvomIE-4" value="«artifact»&lt;br&gt;&lt;b&gt;lambdas_empresa.py&lt;/b&gt;" style="html=1;dropTarget=0;whiteSpace=wrap;strokeColor=default;fontFamily=Helvetica;fontSize=12;fontColor=default;fillColor=default;" vertex="1" parent="1">
          <mxGeometry x="520" y="657" width="140" height="65" as="geometry" />
        </mxCell>
        <mxCell id="B4jyRbYKFRGaW_wvomIE-5" value="" style="shape=module;jettyWidth=8;jettyHeight=4;strokeColor=default;fontFamily=Helvetica;fontSize=12;fontColor=default;fillColor=default;html=1;" vertex="1" parent="B4jyRbYKFRGaW_wvomIE-4">
          <mxGeometry x="1" width="20" height="20" relative="1" as="geometry">
            <mxPoint x="-27" y="7" as="offset" />
          </mxGeometry>
        </mxCell>
        <mxCell id="B4jyRbYKFRGaW_wvomIE-6" value="«component»&lt;br&gt;&lt;b&gt;Gestor de Proyecto&lt;/b&gt;" style="html=1;dropTarget=0;whiteSpace=wrap;strokeColor=default;fontFamily=Helvetica;fontSize=12;fontColor=default;fillColor=default;" vertex="1" parent="1">
          <mxGeometry x="520" y="737" width="140" height="70" as="geometry" />
        </mxCell>
        <mxCell id="B4jyRbYKFRGaW_wvomIE-7" value="" style="shape=module;jettyWidth=8;jettyHeight=4;strokeColor=default;fontFamily=Helvetica;fontSize=12;fontColor=default;fillColor=default;html=1;" vertex="1" parent="B4jyRbYKFRGaW_wvomIE-6">
          <mxGeometry x="1" width="20" height="20" relative="1" as="geometry">
            <mxPoint x="-27" y="7" as="offset" />
          </mxGeometry>
        </mxCell>
        <mxCell id="B4jyRbYKFRGaW_wvomIE-8" value="«artifact»&lt;br&gt;&lt;b&gt;Configuración Proyecto&lt;/b&gt;" style="html=1;dropTarget=0;whiteSpace=wrap;strokeColor=default;fontFamily=Helvetica;fontSize=12;fontColor=default;fillColor=default;" vertex="1" parent="1">
          <mxGeometry x="520" y="827" width="140" height="70" as="geometry" />
        </mxCell>
        <mxCell id="B4jyRbYKFRGaW_wvomIE-9" value="" style="shape=module;jettyWidth=8;jettyHeight=4;strokeColor=default;fontFamily=Helvetica;fontSize=12;fontColor=default;fillColor=default;html=1;" vertex="1" parent="B4jyRbYKFRGaW_wvomIE-8">
          <mxGeometry x="1" width="20" height="20" relative="1" as="geometry">
            <mxPoint x="-27" y="7" as="offset" />
          </mxGeometry>
        </mxCell>
        <mxCell id="B4jyRbYKFRGaW_wvomIE-16" value="" style="group" vertex="1" connectable="0" parent="1">
          <mxGeometry x="50" y="740" width="240" height="250" as="geometry" />
        </mxCell>
        <mxCell id="B4jyRbYKFRGaW_wvomIE-17" value="Autenticaciión" style="verticalAlign=top;align=left;spacingTop=8;spacingLeft=2;spacingRight=12;shape=cube;size=10;direction=south;fontStyle=4;html=1;whiteSpace=wrap;strokeColor=default;fontFamily=Helvetica;fontSize=12;fontColor=default;fillColor=default;" vertex="1" parent="B4jyRbYKFRGaW_wvomIE-16">
          <mxGeometry width="240" height="250.00000000000003" as="geometry" />
        </mxCell>
        <mxCell id="B4jyRbYKFRGaW_wvomIE-18" value="«component»&lt;br&gt;&lt;b&gt;Autenticación&lt;/b&gt;" style="html=1;dropTarget=0;whiteSpace=wrap;strokeColor=default;fontFamily=Helvetica;fontSize=12;fontColor=default;fillColor=default;" vertex="1" parent="B4jyRbYKFRGaW_wvomIE-16">
          <mxGeometry x="20" y="50" width="120" height="76.67" as="geometry" />
        </mxCell>
        <mxCell id="B4jyRbYKFRGaW_wvomIE-19" value="" style="shape=module;jettyWidth=8;jettyHeight=4;strokeColor=default;fontFamily=Helvetica;fontSize=12;fontColor=default;fillColor=default;html=1;" vertex="1" parent="B4jyRbYKFRGaW_wvomIE-18">
          <mxGeometry x="1" width="20" height="20" relative="1" as="geometry">
            <mxPoint x="-27" y="7" as="offset" />
          </mxGeometry>
        </mxCell>
        <mxCell id="5BOVnov4QSM2-BAThqkh-1" value="«component»&lt;br&gt;&lt;b&gt;Gestor de Cliente&lt;/b&gt;" style="html=1;dropTarget=0;whiteSpace=wrap;strokeColor=default;fontFamily=Helvetica;fontSize=12;fontColor=default;fillColor=default;" vertex="1" parent="B4jyRbYKFRGaW_wvomIE-16">
          <mxGeometry x="20" y="140" width="120" height="76.67" as="geometry" />
        </mxCell>
        <mxCell id="5BOVnov4QSM2-BAThqkh-2" value="" style="shape=module;jettyWidth=8;jettyHeight=4;strokeColor=default;fontFamily=Helvetica;fontSize=12;fontColor=default;fillColor=default;html=1;" vertex="1" parent="5BOVnov4QSM2-BAThqkh-1">
          <mxGeometry x="1" width="20" height="20" relative="1" as="geometry">
            <mxPoint x="-27" y="7" as="offset" />
          </mxGeometry>
        </mxCell>
        <mxCell id="kXJm9WHsQab6jSR-hlUv-1" style="edgeStyle=orthogonalEdgeStyle;rounded=0;orthogonalLoop=1;jettySize=auto;html=1;exitX=0;exitY=0;exitDx=0;exitDy=85;exitPerimeter=0;fontFamily=Helvetica;fontSize=12;fontColor=default;endArrow=none;endFill=0;" edge="1" parent="1" source="-jqCXv5XumxJ_PvqGW5K-1" target="-jqCXv5XumxJ_PvqGW5K-5">
          <mxGeometry relative="1" as="geometry" />
        </mxCell>
        <mxCell id="kXJm9WHsQab6jSR-hlUv-2" style="edgeStyle=orthogonalEdgeStyle;rounded=0;orthogonalLoop=1;jettySize=auto;html=1;exitX=0;exitY=0;exitDx=55;exitDy=0;exitPerimeter=0;fontFamily=Helvetica;fontSize=12;fontColor=default;endArrow=none;endFill=0;" edge="1" parent="1" source="-jqCXv5XumxJ_PvqGW5K-1" target="B4jyRbYKFRGaW_wvomIE-3">
          <mxGeometry relative="1" as="geometry" />
        </mxCell>
        <mxCell id="kXJm9WHsQab6jSR-hlUv-3" style="edgeStyle=orthogonalEdgeStyle;rounded=0;orthogonalLoop=1;jettySize=auto;html=1;exitX=0;exitY=0;exitDx=0;exitDy=0;exitPerimeter=0;fontFamily=Helvetica;fontSize=12;fontColor=default;endArrow=none;endFill=0;" edge="1" parent="1" source="-jqCXv5XumxJ_PvqGW5K-1" target="EVhO_KFVvyRUCP2irmnt-1">
          <mxGeometry relative="1" as="geometry" />
        </mxCell>
        <mxCell id="kXJm9WHsQab6jSR-hlUv-4" style="edgeStyle=orthogonalEdgeStyle;rounded=0;orthogonalLoop=1;jettySize=auto;html=1;exitX=0;exitY=0;exitDx=120;exitDy=95;exitPerimeter=0;fontFamily=Helvetica;fontSize=12;fontColor=default;endArrow=none;endFill=0;" edge="1" parent="1" source="-jqCXv5XumxJ_PvqGW5K-1" target="B4jyRbYKFRGaW_wvomIE-17">
          <mxGeometry relative="1" as="geometry" />
        </mxCell>
      </root>
    </mxGraphModel>
  </diagram>
  <diagram id="EgnJcU-MkQPXwYGx9JHn" name="Diagrama de Clases">
    <mxGraphModel dx="2119" dy="803" grid="1" gridSize="10" guides="1" tooltips="1" connect="1" arrows="1" fold="1" page="1" pageScale="1" pageWidth="850" pageHeight="1100" math="0" shadow="0">
      <root>
        <mxCell id="0" />
        <mxCell id="1" parent="0" />
        <mxCell id="bPWx29EfX4gJbDQS733h-22" style="edgeStyle=orthogonalEdgeStyle;rounded=0;orthogonalLoop=1;jettySize=auto;html=1;fontFamily=Helvetica;fontSize=12;fontColor=default;" parent="1" source="bPWx29EfX4gJbDQS733h-1" target="bPWx29EfX4gJbDQS733h-14" edge="1">
          <mxGeometry relative="1" as="geometry" />
        </mxCell>
        <mxCell id="bPWx29EfX4gJbDQS733h-23" value="habilidades" style="edgeLabel;html=1;align=center;verticalAlign=middle;resizable=0;points=[];fontSize=12;fontFamily=Helvetica;fontColor=default;" parent="bPWx29EfX4gJbDQS733h-22" vertex="1" connectable="0">
          <mxGeometry x="0.2109" relative="1" as="geometry">
            <mxPoint x="-38" y="-50" as="offset" />
          </mxGeometry>
        </mxCell>
        <mxCell id="bPWx29EfX4gJbDQS733h-24" value="0..*" style="edgeLabel;html=1;align=center;verticalAlign=middle;resizable=0;points=[];fontSize=12;fontFamily=Helvetica;fontColor=default;" parent="bPWx29EfX4gJbDQS733h-22" vertex="1" connectable="0">
          <mxGeometry x="0.8062" y="2" relative="1" as="geometry">
            <mxPoint x="24" y="-5" as="offset" />
          </mxGeometry>
        </mxCell>
        <mxCell id="bPWx29EfX4gJbDQS733h-1" value="Candidato" style="swimlane;fontStyle=1;align=center;verticalAlign=top;childLayout=stackLayout;horizontal=1;startSize=26;horizontalStack=0;resizeParent=1;resizeParentMax=0;resizeLast=0;collapsible=1;marginBottom=0;whiteSpace=wrap;html=1;strokeColor=default;fontFamily=Helvetica;fontSize=12;fontColor=default;fillColor=default;" parent="1" vertex="1">
          <mxGeometry x="-560" y="320" width="160" height="86" as="geometry" />
        </mxCell>
        <mxCell id="bPWx29EfX4gJbDQS733h-2" value="- nombre: String" style="text;strokeColor=none;fillColor=none;align=left;verticalAlign=top;spacingLeft=4;spacingRight=4;overflow=hidden;rotatable=0;points=[[0,0.5],[1,0.5]];portConstraint=eastwest;whiteSpace=wrap;html=1;fontSize=12;fontFamily=Helvetica;fontColor=default;" parent="bPWx29EfX4gJbDQS733h-1" vertex="1">
          <mxGeometry y="26" width="160" height="26" as="geometry" />
        </mxCell>
        <mxCell id="bPWx29EfX4gJbDQS733h-6" value="- correo: String" style="text;strokeColor=none;fillColor=none;align=left;verticalAlign=top;spacingLeft=4;spacingRight=4;overflow=hidden;rotatable=0;points=[[0,0.5],[1,0.5]];portConstraint=eastwest;whiteSpace=wrap;html=1;fontSize=12;fontFamily=Helvetica;fontColor=default;" parent="bPWx29EfX4gJbDQS733h-1" vertex="1">
          <mxGeometry y="52" width="160" height="26" as="geometry" />
        </mxCell>
        <mxCell id="bPWx29EfX4gJbDQS733h-3" value="" style="line;strokeWidth=1;fillColor=none;align=left;verticalAlign=middle;spacingTop=-1;spacingLeft=3;spacingRight=3;rotatable=0;labelPosition=right;points=[];portConstraint=eastwest;strokeColor=inherit;fontFamily=Helvetica;fontSize=12;fontColor=default;html=1;" parent="bPWx29EfX4gJbDQS733h-1" vertex="1">
          <mxGeometry y="78" width="160" height="8" as="geometry" />
        </mxCell>
        <mxCell id="bPWx29EfX4gJbDQS733h-9" value="Habilidad" style="swimlane;fontStyle=1;align=center;verticalAlign=top;childLayout=stackLayout;horizontal=1;startSize=26;horizontalStack=0;resizeParent=1;resizeParentMax=0;resizeLast=0;collapsible=1;marginBottom=0;whiteSpace=wrap;html=1;strokeColor=default;fontFamily=Helvetica;fontSize=12;fontColor=default;fillColor=default;" parent="1" vertex="1">
          <mxGeometry x="-291.63" y="119" width="160" height="60" as="geometry" />
        </mxCell>
        <mxCell id="bPWx29EfX4gJbDQS733h-10" value="- nombre: String" style="text;strokeColor=none;fillColor=none;align=left;verticalAlign=top;spacingLeft=4;spacingRight=4;overflow=hidden;rotatable=0;points=[[0,0.5],[1,0.5]];portConstraint=eastwest;whiteSpace=wrap;html=1;fontSize=12;fontFamily=Helvetica;fontColor=default;" parent="bPWx29EfX4gJbDQS733h-9" vertex="1">
          <mxGeometry y="26" width="160" height="26" as="geometry" />
        </mxCell>
        <mxCell id="bPWx29EfX4gJbDQS733h-12" value="" style="line;strokeWidth=1;fillColor=none;align=left;verticalAlign=middle;spacingTop=-1;spacingLeft=3;spacingRight=3;rotatable=0;labelPosition=right;points=[];portConstraint=eastwest;strokeColor=inherit;fontFamily=Helvetica;fontSize=12;fontColor=default;html=1;" parent="bPWx29EfX4gJbDQS733h-9" vertex="1">
          <mxGeometry y="52" width="160" height="8" as="geometry" />
        </mxCell>
        <mxCell id="bPWx29EfX4gJbDQS733h-14" value="PuntuaciónHabilidad" style="swimlane;fontStyle=1;align=center;verticalAlign=top;childLayout=stackLayout;horizontal=1;startSize=26;horizontalStack=0;resizeParent=1;resizeParentMax=0;resizeLast=0;collapsible=1;marginBottom=0;whiteSpace=wrap;html=1;strokeColor=default;fontFamily=Helvetica;fontSize=12;fontColor=default;fillColor=default;" parent="1" vertex="1">
          <mxGeometry x="-561.63" y="110" width="160" height="60" as="geometry" />
        </mxCell>
        <mxCell id="bPWx29EfX4gJbDQS733h-15" value="- puntuacion: Float" style="text;strokeColor=none;fillColor=none;align=left;verticalAlign=top;spacingLeft=4;spacingRight=4;overflow=hidden;rotatable=0;points=[[0,0.5],[1,0.5]];portConstraint=eastwest;whiteSpace=wrap;html=1;fontSize=12;fontFamily=Helvetica;fontColor=default;" parent="bPWx29EfX4gJbDQS733h-14" vertex="1">
          <mxGeometry y="26" width="160" height="26" as="geometry" />
        </mxCell>
        <mxCell id="bPWx29EfX4gJbDQS733h-17" value="" style="line;strokeWidth=1;fillColor=none;align=left;verticalAlign=middle;spacingTop=-1;spacingLeft=3;spacingRight=3;rotatable=0;labelPosition=right;points=[];portConstraint=eastwest;strokeColor=inherit;fontFamily=Helvetica;fontSize=12;fontColor=default;html=1;" parent="bPWx29EfX4gJbDQS733h-14" vertex="1">
          <mxGeometry y="52" width="160" height="8" as="geometry" />
        </mxCell>
        <mxCell id="bPWx29EfX4gJbDQS733h-19" style="edgeStyle=orthogonalEdgeStyle;rounded=0;orthogonalLoop=1;jettySize=auto;html=1;exitX=1;exitY=0.5;exitDx=0;exitDy=0;fontFamily=Helvetica;fontSize=12;fontColor=default;" parent="1" source="bPWx29EfX4gJbDQS733h-15" target="bPWx29EfX4gJbDQS733h-9" edge="1">
          <mxGeometry relative="1" as="geometry" />
        </mxCell>
        <mxCell id="bPWx29EfX4gJbDQS733h-20" value="1" style="edgeLabel;html=1;align=center;verticalAlign=middle;resizable=0;points=[];fontSize=12;fontFamily=Helvetica;fontColor=default;" parent="bPWx29EfX4gJbDQS733h-19" vertex="1" connectable="0">
          <mxGeometry x="0.627" y="1" relative="1" as="geometry">
            <mxPoint x="10" y="-11" as="offset" />
          </mxGeometry>
        </mxCell>
        <mxCell id="bPWx29EfX4gJbDQS733h-21" value="habilidad" style="edgeLabel;html=1;align=center;verticalAlign=middle;resizable=0;points=[];fontSize=12;fontFamily=Helvetica;fontColor=default;" parent="bPWx29EfX4gJbDQS733h-19" vertex="1" connectable="0">
          <mxGeometry x="-0.1111" relative="1" as="geometry">
            <mxPoint x="33" y="11" as="offset" />
          </mxGeometry>
        </mxCell>
        <mxCell id="0MeIOagazzb_Niok9Qqc-1" style="edgeStyle=orthogonalEdgeStyle;rounded=0;orthogonalLoop=1;jettySize=auto;html=1;exitX=0.5;exitY=0;exitDx=0;exitDy=0;" edge="1" parent="1" source="bPWx29EfX4gJbDQS733h-25" target="bPWx29EfX4gJbDQS733h-30">
          <mxGeometry relative="1" as="geometry">
            <Array as="points">
              <mxPoint x="-350" y="700" />
              <mxPoint x="-350" y="700" />
            </Array>
          </mxGeometry>
        </mxCell>
        <mxCell id="0MeIOagazzb_Niok9Qqc-30" value="0..*" style="edgeLabel;html=1;align=center;verticalAlign=middle;resizable=0;points=[];" vertex="1" connectable="0" parent="0MeIOagazzb_Niok9Qqc-1">
          <mxGeometry x="0.3679" y="1" relative="1" as="geometry">
            <mxPoint x="-9" y="-3" as="offset" />
          </mxGeometry>
        </mxCell>
        <mxCell id="bPWx29EfX4gJbDQS733h-25" value="Empresa" style="swimlane;fontStyle=1;align=center;verticalAlign=top;childLayout=stackLayout;horizontal=1;startSize=26;horizontalStack=0;resizeParent=1;resizeParentMax=0;resizeLast=0;collapsible=1;marginBottom=0;whiteSpace=wrap;html=1;strokeColor=default;fontFamily=Helvetica;fontSize=12;fontColor=default;fillColor=default;" parent="1" vertex="1">
          <mxGeometry x="-430" y="744.42" width="160" height="60" as="geometry" />
        </mxCell>
        <mxCell id="bPWx29EfX4gJbDQS733h-26" value="- nombre: String" style="text;strokeColor=none;fillColor=none;align=left;verticalAlign=top;spacingLeft=4;spacingRight=4;overflow=hidden;rotatable=0;points=[[0,0.5],[1,0.5]];portConstraint=eastwest;whiteSpace=wrap;html=1;fontSize=12;fontFamily=Helvetica;fontColor=default;" parent="bPWx29EfX4gJbDQS733h-25" vertex="1">
          <mxGeometry y="26" width="160" height="26" as="geometry" />
        </mxCell>
        <mxCell id="bPWx29EfX4gJbDQS733h-28" value="" style="line;strokeWidth=1;fillColor=none;align=left;verticalAlign=middle;spacingTop=-1;spacingLeft=3;spacingRight=3;rotatable=0;labelPosition=right;points=[];portConstraint=eastwest;strokeColor=inherit;fontFamily=Helvetica;fontSize=12;fontColor=default;html=1;" parent="bPWx29EfX4gJbDQS733h-25" vertex="1">
          <mxGeometry y="52" width="160" height="8" as="geometry" />
        </mxCell>
        <mxCell id="0MeIOagazzb_Niok9Qqc-3" style="edgeStyle=orthogonalEdgeStyle;rounded=0;orthogonalLoop=1;jettySize=auto;html=1;exitX=0;exitY=0.25;exitDx=0;exitDy=0;startArrow=classic;startFill=1;" edge="1" parent="1" source="bPWx29EfX4gJbDQS733h-30" target="bPWx29EfX4gJbDQS733h-1">
          <mxGeometry relative="1" as="geometry" />
        </mxCell>
        <mxCell id="0MeIOagazzb_Niok9Qqc-4" value="0..*" style="edgeLabel;html=1;align=center;verticalAlign=middle;resizable=0;points=[];" vertex="1" connectable="0" parent="0MeIOagazzb_Niok9Qqc-3">
          <mxGeometry x="0.8755" y="-1" relative="1" as="geometry">
            <mxPoint x="9" as="offset" />
          </mxGeometry>
        </mxCell>
        <mxCell id="0MeIOagazzb_Niok9Qqc-5" value="candidatosPosibles" style="edgeLabel;html=1;align=center;verticalAlign=middle;resizable=0;points=[];" vertex="1" connectable="0" parent="0MeIOagazzb_Niok9Qqc-3">
          <mxGeometry x="0.0501" y="1" relative="1" as="geometry">
            <mxPoint x="-49" y="-120" as="offset" />
          </mxGeometry>
        </mxCell>
        <mxCell id="0MeIOagazzb_Niok9Qqc-10" value="posiblesProyectos" style="edgeLabel;html=1;align=center;verticalAlign=middle;resizable=0;points=[];" vertex="1" connectable="0" parent="0MeIOagazzb_Niok9Qqc-3">
          <mxGeometry x="-0.6639" y="1" relative="1" as="geometry">
            <mxPoint x="-3" y="15" as="offset" />
          </mxGeometry>
        </mxCell>
        <mxCell id="0MeIOagazzb_Niok9Qqc-11" value="0..*" style="edgeLabel;html=1;align=center;verticalAlign=middle;resizable=0;points=[];" vertex="1" connectable="0" parent="0MeIOagazzb_Niok9Qqc-3">
          <mxGeometry x="-0.3992" y="3" relative="1" as="geometry">
            <mxPoint x="43" y="26" as="offset" />
          </mxGeometry>
        </mxCell>
        <mxCell id="0MeIOagazzb_Niok9Qqc-6" style="edgeStyle=orthogonalEdgeStyle;rounded=0;orthogonalLoop=1;jettySize=auto;html=1;exitX=0.5;exitY=0;exitDx=0;exitDy=0;entryX=1;entryY=0.5;entryDx=0;entryDy=0;startArrow=classic;startFill=1;" edge="1" parent="1" source="bPWx29EfX4gJbDQS733h-30" target="bPWx29EfX4gJbDQS733h-6">
          <mxGeometry relative="1" as="geometry" />
        </mxCell>
        <mxCell id="0MeIOagazzb_Niok9Qqc-7" value="candidatosActuales" style="edgeLabel;html=1;align=center;verticalAlign=middle;resizable=0;points=[];" vertex="1" connectable="0" parent="0MeIOagazzb_Niok9Qqc-6">
          <mxGeometry x="-0.104" relative="1" as="geometry">
            <mxPoint y="-125" as="offset" />
          </mxGeometry>
        </mxCell>
        <mxCell id="0MeIOagazzb_Niok9Qqc-8" value="0..*" style="edgeLabel;html=1;align=center;verticalAlign=middle;resizable=0;points=[];" vertex="1" connectable="0" parent="0MeIOagazzb_Niok9Qqc-6">
          <mxGeometry x="0.536" y="-3" relative="1" as="geometry">
            <mxPoint x="-43" as="offset" />
          </mxGeometry>
        </mxCell>
        <mxCell id="0MeIOagazzb_Niok9Qqc-9" value="1" style="edgeLabel;html=1;align=center;verticalAlign=middle;resizable=0;points=[];" vertex="1" connectable="0" parent="0MeIOagazzb_Niok9Qqc-6">
          <mxGeometry x="-0.6816" y="1" relative="1" as="geometry">
            <mxPoint x="11" y="32" as="offset" />
          </mxGeometry>
        </mxCell>
        <mxCell id="0MeIOagazzb_Niok9Qqc-12" value="proyectoActual" style="edgeLabel;html=1;align=center;verticalAlign=middle;resizable=0;points=[];" vertex="1" connectable="0" parent="0MeIOagazzb_Niok9Qqc-6">
          <mxGeometry x="-0.6133" y="3" relative="1" as="geometry">
            <mxPoint x="-37" y="42" as="offset" />
          </mxGeometry>
        </mxCell>
        <mxCell id="0MeIOagazzb_Niok9Qqc-31" style="edgeStyle=orthogonalEdgeStyle;rounded=0;orthogonalLoop=1;jettySize=auto;html=1;" edge="1" parent="1" source="bPWx29EfX4gJbDQS733h-30" target="0MeIOagazzb_Niok9Qqc-26">
          <mxGeometry relative="1" as="geometry" />
        </mxCell>
        <mxCell id="0MeIOagazzb_Niok9Qqc-32" value="0..*" style="edgeLabel;html=1;align=center;verticalAlign=middle;resizable=0;points=[];" vertex="1" connectable="0" parent="0MeIOagazzb_Niok9Qqc-31">
          <mxGeometry x="0.5495" relative="1" as="geometry">
            <mxPoint y="-14" as="offset" />
          </mxGeometry>
        </mxCell>
        <mxCell id="0MeIOagazzb_Niok9Qqc-33" value="pruebas" style="edgeLabel;html=1;align=center;verticalAlign=middle;resizable=0;points=[];" vertex="1" connectable="0" parent="0MeIOagazzb_Niok9Qqc-31">
          <mxGeometry x="-0.1429" relative="1" as="geometry">
            <mxPoint as="offset" />
          </mxGeometry>
        </mxCell>
        <mxCell id="bPWx29EfX4gJbDQS733h-30" value="Proyecto" style="swimlane;fontStyle=1;align=center;verticalAlign=top;childLayout=stackLayout;horizontal=1;startSize=26;horizontalStack=0;resizeParent=1;resizeParentMax=0;resizeLast=0;collapsible=1;marginBottom=0;whiteSpace=wrap;html=1;strokeColor=default;fontFamily=Helvetica;fontSize=12;fontColor=default;fillColor=default;" parent="1" vertex="1">
          <mxGeometry x="-430" y="624.42" width="160" height="60" as="geometry" />
        </mxCell>
        <mxCell id="bPWx29EfX4gJbDQS733h-31" value="- nombre: String" style="text;strokeColor=none;fillColor=none;align=left;verticalAlign=top;spacingLeft=4;spacingRight=4;overflow=hidden;rotatable=0;points=[[0,0.5],[1,0.5]];portConstraint=eastwest;whiteSpace=wrap;html=1;fontSize=12;fontFamily=Helvetica;fontColor=default;" parent="bPWx29EfX4gJbDQS733h-30" vertex="1">
          <mxGeometry y="26" width="160" height="26" as="geometry" />
        </mxCell>
        <mxCell id="bPWx29EfX4gJbDQS733h-32" value="" style="line;strokeWidth=1;fillColor=none;align=left;verticalAlign=middle;spacingTop=-1;spacingLeft=3;spacingRight=3;rotatable=0;labelPosition=right;points=[];portConstraint=eastwest;strokeColor=inherit;fontFamily=Helvetica;fontSize=12;fontColor=default;html=1;" parent="bPWx29EfX4gJbDQS733h-30" vertex="1">
          <mxGeometry y="52" width="160" height="8" as="geometry" />
        </mxCell>
        <mxCell id="0MeIOagazzb_Niok9Qqc-18" style="edgeStyle=orthogonalEdgeStyle;rounded=0;orthogonalLoop=1;jettySize=auto;html=1;exitX=0.5;exitY=0;exitDx=0;exitDy=0;entryX=0;entryY=0.25;entryDx=0;entryDy=0;endArrow=none;endFill=0;startArrow=classic;startFill=1;" edge="1" parent="1" source="0MeIOagazzb_Niok9Qqc-14" target="bPWx29EfX4gJbDQS733h-1">
          <mxGeometry relative="1" as="geometry" />
        </mxCell>
        <mxCell id="0MeIOagazzb_Niok9Qqc-19" value="0..*" style="edgeLabel;html=1;align=center;verticalAlign=middle;resizable=0;points=[];" vertex="1" connectable="0" parent="0MeIOagazzb_Niok9Qqc-18">
          <mxGeometry x="-0.8448" relative="1" as="geometry">
            <mxPoint x="-10" y="11" as="offset" />
          </mxGeometry>
        </mxCell>
        <mxCell id="0MeIOagazzb_Niok9Qqc-20" value="puntuaciones" style="edgeLabel;html=1;align=center;verticalAlign=middle;resizable=0;points=[];" vertex="1" connectable="0" parent="0MeIOagazzb_Niok9Qqc-18">
          <mxGeometry x="-0.7455" y="1" relative="1" as="geometry">
            <mxPoint x="41" y="24" as="offset" />
          </mxGeometry>
        </mxCell>
        <mxCell id="0MeIOagazzb_Niok9Qqc-21" style="edgeStyle=orthogonalEdgeStyle;rounded=0;orthogonalLoop=1;jettySize=auto;html=1;exitX=0.5;exitY=1;exitDx=0;exitDy=0;entryX=0;entryY=0.25;entryDx=0;entryDy=0;" edge="1" parent="1" source="0MeIOagazzb_Niok9Qqc-14" target="bPWx29EfX4gJbDQS733h-25">
          <mxGeometry relative="1" as="geometry" />
        </mxCell>
        <mxCell id="0MeIOagazzb_Niok9Qqc-22" value="1" style="edgeLabel;html=1;align=center;verticalAlign=middle;resizable=0;points=[];" vertex="1" connectable="0" parent="0MeIOagazzb_Niok9Qqc-21">
          <mxGeometry x="0.8593" y="1" relative="1" as="geometry">
            <mxPoint x="13" y="-8" as="offset" />
          </mxGeometry>
        </mxCell>
        <mxCell id="0MeIOagazzb_Niok9Qqc-24" value="empresa" style="edgeLabel;html=1;align=center;verticalAlign=middle;resizable=0;points=[];" vertex="1" connectable="0" parent="0MeIOagazzb_Niok9Qqc-21">
          <mxGeometry x="0.7164" y="-2" relative="1" as="geometry">
            <mxPoint x="15" y="9" as="offset" />
          </mxGeometry>
        </mxCell>
        <mxCell id="0MeIOagazzb_Niok9Qqc-14" value="Clasificación" style="swimlane;fontStyle=1;align=center;verticalAlign=top;childLayout=stackLayout;horizontal=1;startSize=26;horizontalStack=0;resizeParent=1;resizeParentMax=0;resizeLast=0;collapsible=1;marginBottom=0;whiteSpace=wrap;html=1;strokeColor=default;fontFamily=Helvetica;fontSize=12;fontColor=default;fillColor=default;" vertex="1" parent="1">
          <mxGeometry x="-750" y="624.42" width="160" height="60" as="geometry" />
        </mxCell>
        <mxCell id="0MeIOagazzb_Niok9Qqc-15" value="- puntuacion: Float" style="text;strokeColor=none;fillColor=none;align=left;verticalAlign=top;spacingLeft=4;spacingRight=4;overflow=hidden;rotatable=0;points=[[0,0.5],[1,0.5]];portConstraint=eastwest;whiteSpace=wrap;html=1;fontSize=12;fontFamily=Helvetica;fontColor=default;" vertex="1" parent="0MeIOagazzb_Niok9Qqc-14">
          <mxGeometry y="26" width="160" height="26" as="geometry" />
        </mxCell>
        <mxCell id="0MeIOagazzb_Niok9Qqc-17" value="" style="line;strokeWidth=1;fillColor=none;align=left;verticalAlign=middle;spacingTop=-1;spacingLeft=3;spacingRight=3;rotatable=0;labelPosition=right;points=[];portConstraint=eastwest;strokeColor=inherit;fontFamily=Helvetica;fontSize=12;fontColor=default;html=1;" vertex="1" parent="0MeIOagazzb_Niok9Qqc-14">
          <mxGeometry y="52" width="160" height="8" as="geometry" />
        </mxCell>
        <mxCell id="0MeIOagazzb_Niok9Qqc-47" style="edgeStyle=orthogonalEdgeStyle;rounded=0;orthogonalLoop=1;jettySize=auto;html=1;entryX=1;entryY=0;entryDx=0;entryDy=0;exitX=0.5;exitY=0;exitDx=0;exitDy=0;" edge="1" parent="1" source="0MeIOagazzb_Niok9Qqc-26" target="bPWx29EfX4gJbDQS733h-1">
          <mxGeometry relative="1" as="geometry" />
        </mxCell>
        <mxCell id="0MeIOagazzb_Niok9Qqc-48" value="0..*" style="edgeLabel;html=1;align=center;verticalAlign=middle;resizable=0;points=[];" vertex="1" connectable="0" parent="0MeIOagazzb_Niok9Qqc-47">
          <mxGeometry x="0.9557" y="-1" relative="1" as="geometry">
            <mxPoint x="-9" as="offset" />
          </mxGeometry>
        </mxCell>
        <mxCell id="0MeIOagazzb_Niok9Qqc-49" value="candidatos" style="edgeLabel;html=1;align=center;verticalAlign=middle;resizable=0;points=[];" vertex="1" connectable="0" parent="0MeIOagazzb_Niok9Qqc-47">
          <mxGeometry x="-0.3846" y="1" relative="1" as="geometry">
            <mxPoint as="offset" />
          </mxGeometry>
        </mxCell>
        <mxCell id="0MeIOagazzb_Niok9Qqc-26" value="AbstractPrueba" style="swimlane;fontStyle=1;align=center;verticalAlign=top;childLayout=stackLayout;horizontal=1;startSize=26;horizontalStack=0;resizeParent=1;resizeParentMax=0;resizeLast=0;collapsible=1;marginBottom=0;whiteSpace=wrap;html=1;strokeColor=default;fontFamily=Helvetica;fontSize=12;fontColor=default;fillColor=default;" vertex="1" parent="1">
          <mxGeometry x="-180" y="624.42" width="160" height="60" as="geometry" />
        </mxCell>
        <mxCell id="0MeIOagazzb_Niok9Qqc-27" value="- nombre: String" style="text;strokeColor=none;fillColor=none;align=left;verticalAlign=top;spacingLeft=4;spacingRight=4;overflow=hidden;rotatable=0;points=[[0,0.5],[1,0.5]];portConstraint=eastwest;whiteSpace=wrap;html=1;fontSize=12;fontFamily=Helvetica;fontColor=default;" vertex="1" parent="0MeIOagazzb_Niok9Qqc-26">
          <mxGeometry y="26" width="160" height="26" as="geometry" />
        </mxCell>
        <mxCell id="0MeIOagazzb_Niok9Qqc-28" value="" style="line;strokeWidth=1;fillColor=none;align=left;verticalAlign=middle;spacingTop=-1;spacingLeft=3;spacingRight=3;rotatable=0;labelPosition=right;points=[];portConstraint=eastwest;strokeColor=inherit;fontFamily=Helvetica;fontSize=12;fontColor=default;html=1;" vertex="1" parent="0MeIOagazzb_Niok9Qqc-26">
          <mxGeometry y="52" width="160" height="8" as="geometry" />
        </mxCell>
        <mxCell id="0MeIOagazzb_Niok9Qqc-42" style="edgeStyle=orthogonalEdgeStyle;rounded=0;orthogonalLoop=1;jettySize=auto;html=1;" edge="1" parent="1" source="0MeIOagazzb_Niok9Qqc-35" target="0MeIOagazzb_Niok9Qqc-26">
          <mxGeometry relative="1" as="geometry" />
        </mxCell>
        <mxCell id="0MeIOagazzb_Niok9Qqc-35" value="Prueba en Grupo" style="swimlane;fontStyle=1;align=center;verticalAlign=top;childLayout=stackLayout;horizontal=1;startSize=26;horizontalStack=0;resizeParent=1;resizeParentMax=0;resizeLast=0;collapsible=1;marginBottom=0;whiteSpace=wrap;html=1;strokeColor=default;fontFamily=Helvetica;fontSize=12;fontColor=default;fillColor=default;" vertex="1" parent="1">
          <mxGeometry x="40" y="710" width="160" height="34" as="geometry" />
        </mxCell>
        <mxCell id="0MeIOagazzb_Niok9Qqc-37" value="" style="line;strokeWidth=1;fillColor=none;align=left;verticalAlign=middle;spacingTop=-1;spacingLeft=3;spacingRight=3;rotatable=0;labelPosition=right;points=[];portConstraint=eastwest;strokeColor=inherit;fontFamily=Helvetica;fontSize=12;fontColor=default;html=1;" vertex="1" parent="0MeIOagazzb_Niok9Qqc-35">
          <mxGeometry y="26" width="160" height="8" as="geometry" />
        </mxCell>
        <mxCell id="0MeIOagazzb_Niok9Qqc-41" style="edgeStyle=orthogonalEdgeStyle;rounded=0;orthogonalLoop=1;jettySize=auto;html=1;" edge="1" parent="1" source="0MeIOagazzb_Niok9Qqc-38" target="0MeIOagazzb_Niok9Qqc-26">
          <mxGeometry relative="1" as="geometry" />
        </mxCell>
        <mxCell id="0MeIOagazzb_Niok9Qqc-38" value="Prueba Individual" style="swimlane;fontStyle=1;align=center;verticalAlign=top;childLayout=stackLayout;horizontal=1;startSize=26;horizontalStack=0;resizeParent=1;resizeParentMax=0;resizeLast=0;collapsible=1;marginBottom=0;whiteSpace=wrap;html=1;strokeColor=default;fontFamily=Helvetica;fontSize=12;fontColor=default;fillColor=default;" vertex="1" parent="1">
          <mxGeometry x="40" y="610" width="160" height="60" as="geometry" />
        </mxCell>
        <mxCell id="0MeIOagazzb_Niok9Qqc-39" value="- puntaje: Float" style="text;strokeColor=none;fillColor=none;align=left;verticalAlign=top;spacingLeft=4;spacingRight=4;overflow=hidden;rotatable=0;points=[[0,0.5],[1,0.5]];portConstraint=eastwest;whiteSpace=wrap;html=1;fontSize=12;fontFamily=Helvetica;fontColor=default;" vertex="1" parent="0MeIOagazzb_Niok9Qqc-38">
          <mxGeometry y="26" width="160" height="26" as="geometry" />
        </mxCell>
        <mxCell id="0MeIOagazzb_Niok9Qqc-40" value="" style="line;strokeWidth=1;fillColor=none;align=left;verticalAlign=middle;spacingTop=-1;spacingLeft=3;spacingRight=3;rotatable=0;labelPosition=right;points=[];portConstraint=eastwest;strokeColor=inherit;fontFamily=Helvetica;fontSize=12;fontColor=default;html=1;" vertex="1" parent="0MeIOagazzb_Niok9Qqc-38">
          <mxGeometry y="52" width="160" height="8" as="geometry" />
        </mxCell>
        <mxCell id="0MeIOagazzb_Niok9Qqc-46" style="edgeStyle=orthogonalEdgeStyle;rounded=0;orthogonalLoop=1;jettySize=auto;html=1;" edge="1" parent="1" source="0MeIOagazzb_Niok9Qqc-43" target="0MeIOagazzb_Niok9Qqc-26">
          <mxGeometry relative="1" as="geometry" />
        </mxCell>
        <mxCell id="0MeIOagazzb_Niok9Qqc-43" value="Prueba Psicológica" style="swimlane;fontStyle=1;align=center;verticalAlign=top;childLayout=stackLayout;horizontal=1;startSize=26;horizontalStack=0;resizeParent=1;resizeParentMax=0;resizeLast=0;collapsible=1;marginBottom=0;whiteSpace=wrap;html=1;strokeColor=default;fontFamily=Helvetica;fontSize=12;fontColor=default;fillColor=default;" vertex="1" parent="1">
          <mxGeometry x="40" y="790" width="160" height="60" as="geometry" />
        </mxCell>
        <mxCell id="0MeIOagazzb_Niok9Qqc-44" value="- puntaje: Float" style="text;strokeColor=none;fillColor=none;align=left;verticalAlign=top;spacingLeft=4;spacingRight=4;overflow=hidden;rotatable=0;points=[[0,0.5],[1,0.5]];portConstraint=eastwest;whiteSpace=wrap;html=1;fontSize=12;fontFamily=Helvetica;fontColor=default;" vertex="1" parent="0MeIOagazzb_Niok9Qqc-43">
          <mxGeometry y="26" width="160" height="26" as="geometry" />
        </mxCell>
        <mxCell id="0MeIOagazzb_Niok9Qqc-45" value="" style="line;strokeWidth=1;fillColor=none;align=left;verticalAlign=middle;spacingTop=-1;spacingLeft=3;spacingRight=3;rotatable=0;labelPosition=right;points=[];portConstraint=eastwest;strokeColor=inherit;fontFamily=Helvetica;fontSize=12;fontColor=default;html=1;" vertex="1" parent="0MeIOagazzb_Niok9Qqc-43">
          <mxGeometry y="52" width="160" height="8" as="geometry" />
        </mxCell>
      </root>
    </mxGraphModel>
  </diagram>
</mxfile>
